<svg width="193" height="193" viewBox="0 0 193 193" fill="none" xmlns="http://www.w3.org/2000/svg">
<path d="M84.1239 96.1239C84.1239 93.7505 84.8277 91.4304 86.1462 89.457C87.4648 87.4836 89.339 85.9456 91.5317 85.0373C93.7244 84.1291 96.1372 83.8914 98.465 84.3544C100.793 84.8175 102.931 85.9604 104.609 87.6386C106.287 89.3168 107.43 91.455 107.893 93.7828C108.356 96.1106 108.119 98.5234 107.21 100.716C106.302 102.909 104.764 104.783 102.791 106.102C100.817 107.42 98.4972 108.124 96.1239 108.124C92.9413 108.124 89.889 106.86 87.6386 104.609C85.3882 102.359 84.1239 99.3065 84.1239 96.1239ZM180.408 123.84C184.149 127.548 187.121 131.959 189.152 136.819C191.184 141.679 192.236 146.893 192.248 152.16C192.259 157.428 191.23 162.646 189.22 167.515C187.209 172.383 184.257 176.807 180.532 180.532C176.807 184.257 172.383 187.209 167.515 189.22C162.646 191.23 157.428 192.259 152.16 192.248C146.893 192.236 141.679 191.184 136.819 189.152C131.959 187.121 127.548 184.149 123.84 180.408L96.1239 152.692L68.4079 180.408C64.6994 184.149 60.2886 187.121 55.4286 189.152C50.5686 191.184 45.3552 192.236 40.0876 192.248C34.82 192.259 29.602 191.23 24.7331 189.22C19.8643 187.209 15.4405 184.257 11.7157 180.532C7.99096 176.807 5.03858 172.383 3.02808 167.515C1.01758 162.646 -0.0114389 157.428 9.59093e-05 152.16C0.0116307 146.893 1.0635 141.679 3.0953 136.819C5.1271 131.959 8.09883 127.548 11.8399 123.84L39.5559 96.1239L11.8399 68.4079C8.09883 64.6994 5.1271 60.2886 3.0953 55.4286C1.0635 50.5686 0.0116307 45.3552 9.59093e-05 40.0876C-0.0114389 34.82 1.01758 29.602 3.02808 24.7331C5.03858 19.8643 7.99096 15.4405 11.7157 11.7157C15.4405 7.99096 19.8643 5.03858 24.7331 3.02808C29.602 1.01758 34.82 -0.0114389 40.0876 9.59093e-05C45.3552 0.0116307 50.5686 1.0635 55.4286 3.0953C60.2886 5.1271 64.6994 8.09883 68.4079 11.8399L96.1239 39.5559L123.84 11.8399C127.548 8.09883 131.959 5.1271 136.819 3.0953C141.679 1.0635 146.893 0.0116307 152.16 9.59093e-05C157.428 -0.0114389 162.646 1.01758 167.515 3.02808C172.383 5.03858 176.807 7.99096 180.532 11.7157C184.257 15.4405 187.209 19.8643 189.22 24.7331C191.23 29.602 192.259 34.82 192.248 40.0876C192.236 45.3552 191.184 50.5686 189.152 55.4286C187.121 60.2886 184.149 64.6994 180.408 68.4079L152.692 96.1239L180.408 123.84ZM62.1839 96.1239L96.1239 130.064L130.064 96.1239L96.1239 62.1839L62.1839 96.1239ZM107.438 50.8699L141.378 84.8099L169.094 57.0949C171.332 54.8685 173.11 52.2224 174.324 49.308C175.538 46.3936 176.166 43.2683 176.17 40.1111C176.174 36.9538 175.556 33.8268 174.35 30.9091C173.143 27.9913 171.374 25.3402 169.141 23.1077C166.909 20.8751 164.258 19.105 161.34 17.8986C158.422 16.6923 155.295 16.0735 152.138 16.0777C148.981 16.0819 145.856 16.709 142.941 17.9231C140.027 19.1372 137.38 20.9144 135.154 23.1529L107.438 50.8699ZM84.8099 141.378L50.8699 107.438L23.1539 135.153C20.9153 137.379 19.1379 140.025 17.9237 142.94C16.7094 145.854 16.0821 148.979 16.0777 152.137C16.0734 155.294 16.692 158.421 17.8981 161.339C19.1043 164.256 20.8742 166.908 23.1067 169.14C25.3391 171.373 27.9901 173.143 30.9077 174.349C33.8254 175.555 36.9524 176.174 40.1096 176.17C43.2669 176.166 46.3922 175.539 49.3067 174.325C52.2211 173.111 54.8674 171.333 57.0939 169.095L84.8099 141.378Z" fill="black"/>
</svg>
