<svg width="173" height="204" viewBox="0 0 173 204" fill="none" xmlns="http://www.w3.org/2000/svg">
<path d="M172.016 62C172.017 61.1924 171.853 60.393 171.537 59.6502C171.22 58.9074 170.755 58.2365 170.172 57.678L114.251 1.758C114.239 1.746 114.227 1.737 114.216 1.725C114.088 1.5988 113.955 1.47835 113.816 1.364C113.778 1.332 113.736 1.304 113.696 1.274C113.581 1.184 113.466 1.094 113.344 1.014C113.308 0.99 113.271 0.970001 113.234 0.947001C113.105 0.863018 112.974 0.783959 112.839 0.709999C112.814 0.696999 112.786 0.686 112.761 0.673C112.613 0.595121 112.462 0.523393 112.308 0.458C112.291 0.451 112.273 0.446001 112.256 0.440001C112.092 0.372526 111.925 0.312465 111.756 0.26L111.705 0.247C111.535 0.195986 111.362 0.15261 111.188 0.117001C111.144 0.108001 111.098 0.105 111.052 0.0970001C110.905 0.0690577 110.756 0.0467089 110.607 0.0300007C110.408 0.0100182 110.208 4.98323e-06 110.008 0H14C10.2883 0.00423472 6.72977 1.48059 4.10518 4.10518C1.48059 6.72977 0.00423472 10.2883 0 14V190C0.00423472 193.712 1.48059 197.27 4.10518 199.895C6.72977 202.519 10.2883 203.996 14 204H158.008C161.72 203.996 165.278 202.519 167.903 199.895C170.527 197.27 172.004 193.712 172.008 190V62.16C172.009 62.106 172.016 62.054 172.016 62ZM116.008 20.485L151.523 56H116.008V20.485ZM158.008 192H14C13.4698 191.999 12.9616 191.788 12.5867 191.413C12.2118 191.038 12.0008 190.53 12 190V14C12.0005 13.4697 12.2114 12.9613 12.5864 12.5864C12.9613 12.2114 13.4697 12.0005 14 12H104.008V62C104.008 63.5913 104.64 65.1174 105.765 66.2426C106.891 67.3679 108.417 68 110.008 68H160.008V190C160.007 190.53 159.796 191.038 159.421 191.413C159.046 191.788 158.538 191.999 158.008 192V192ZM118.251 125.757C118.808 126.314 119.25 126.976 119.552 127.704C119.853 128.432 120.009 129.212 120.009 130C120.009 130.788 119.853 131.568 119.552 132.296C119.25 133.024 118.808 133.686 118.251 134.243L90.254 162.239C89.971 162.522 89.6604 162.776 89.327 162.997C89.307 163.011 89.285 163.022 89.264 163.035C88.9555 163.236 88.6291 163.407 88.289 163.548L88.213 163.576C87.8758 163.711 87.5271 163.815 87.171 163.886L87.112 163.894C86.3828 164.035 85.6332 164.035 84.904 163.894C84.884 163.891 84.864 163.889 84.845 163.885C84.489 163.814 84.1402 163.711 83.803 163.576C83.778 163.566 83.753 163.559 83.727 163.548C83.3869 163.407 83.0605 163.236 82.752 163.035C82.732 163.022 82.71 163.011 82.689 162.997C82.3556 162.776 82.0451 162.522 81.762 162.239L53.765 134.243C52.6397 133.118 52.0075 131.591 52.0075 130C52.0075 128.409 52.6397 126.882 53.765 125.757C54.8903 124.632 56.4166 123.999 58.008 123.999C59.5994 123.999 61.1257 124.632 62.251 125.757L80.008 143.515V94C80.008 92.4087 80.6401 90.8826 81.7654 89.7574C82.8906 88.6321 84.4167 88 86.008 88C87.5993 88 89.1254 88.6321 90.2506 89.7574C91.3759 90.8826 92.008 92.4087 92.008 94V143.515L109.765 125.757C110.322 125.2 110.984 124.758 111.712 124.456C112.44 124.155 113.22 123.999 114.008 123.999C114.796 123.999 115.576 124.155 116.304 124.456C117.032 124.758 117.694 125.2 118.251 125.757V125.757Z" fill="black"/>
</svg>
