<svg width="177" height="241" viewBox="0 0 177 241" fill="none" xmlns="http://www.w3.org/2000/svg">
<path d="M55.998 240.003C54.8145 240.002 53.646 239.739 52.5764 239.233C51.5069 238.726 50.5631 237.988 49.813 237.073C49.0629 236.158 48.5252 235.087 48.2387 233.939C47.9522 232.791 47.9239 231.593 48.156 230.433L62.822 157.104L5.19199 135.493C3.9603 135.031 2.86145 134.273 1.99276 133.285C1.12407 132.297 0.51233 131.111 0.211717 129.83C-0.0888962 128.55 -0.0691082 127.215 0.269326 125.944C0.607761 124.672 1.2544 123.504 2.15199 122.543L114.152 2.54285C115.34 1.26987 116.91 0.41901 118.625 0.119385C120.34 -0.18024 122.106 0.087725 123.654 0.882617C125.203 1.67751 126.451 2.95594 127.207 4.52392C127.963 6.0919 128.188 7.86383 127.846 9.57085L113.18 82.9008L170.81 104.511C172.042 104.973 173.141 105.731 174.009 106.719C174.878 107.706 175.49 108.893 175.79 110.174C176.091 111.454 176.071 112.789 175.733 114.06C175.394 115.331 174.748 116.499 173.85 117.461L61.85 237.461C61.1012 238.263 60.1952 238.903 59.1884 239.341C58.1817 239.778 57.0956 240.003 55.998 240.003V240.003ZM22.014 124.713L74.81 144.511C76.5881 145.178 78.0712 146.455 78.9938 148.115C79.9164 149.775 80.2185 151.709 79.846 153.571L69.369 205.955L153.988 115.291L101.192 95.4929C99.4138 94.8261 97.9308 93.5486 97.0082 91.8888C96.0856 90.2289 95.7835 88.295 96.156 86.4328L106.633 34.0499L22.014 124.713Z" fill="white"/>
</svg>
